<svg width="18" height="19" viewBox="0 0 18 19" fill="none" xmlns="http://www.w3.org/2000/svg">
<path d="M16 0.800049H2C0.9 0.800049 0 1.70005 0 2.80005V16.8C0 17.9 0.9 18.8 2 18.8H16C17.1 18.8 18 17.9 18 16.8V2.80005C18 1.70005 17.1 0.800049 16 0.800049ZM8 5.80005H6V7.80005C6 8.90005 5.1 9.80005 4 9.80005C5.1 9.80005 6 10.7 6 11.8V13.8H8V15.8H6C4.9 15.8 4 14.9 4 13.8V12.8C4 11.7 3.1 10.8 2 10.8V8.80005C3.1 8.80005 4 7.90005 4 6.80005V5.80005C4 4.70005 4.9 3.80005 6 3.80005H8V5.80005ZM16 10.8C14.9 10.8 14 11.7 14 12.8V13.8C14 14.9 13.1 15.8 12 15.8H10V13.8H12V11.8C12 10.7 12.9 9.80005 14 9.80005C12.9 9.80005 12 8.90005 12 7.80005V5.80005H10V3.80005H12C13.1 3.80005 14 4.70005 14 5.80005V6.80005C14 7.90005 14.9 8.80005 16 8.80005V10.8Z" fill="#001400"/>
</svg>
