<svg width="34" height="4" viewBox="0 0 34 4" fill="none" xmlns="http://www.w3.org/2000/svg">
<path d="M18.7895 2C18.7895 2.39556 18.6845 2.78224 18.4879 3.11114C18.2913 3.44004 18.0118 3.69638 17.6848 3.84776C17.3578 3.99913 16.998 4.03874 16.6509 3.96157C16.3038 3.8844 15.9849 3.69392 15.7347 3.41421C15.4844 3.13451 15.314 2.77814 15.2449 2.39018C15.1759 2.00222 15.2113 1.60008 15.3467 1.23463C15.4822 0.86918 15.7115 0.556824 16.0058 0.337061C16.3001 0.117298 16.6461 0 17 0C17.4746 0 17.9298 0.210714 18.2654 0.585787C18.6009 0.960859 18.7895 1.46957 18.7895 2ZM1.78947 0C1.43555 0 1.08957 0.117298 0.795297 0.337061C0.501019 0.556824 0.271657 0.86918 0.136216 1.23463C0.000775345 1.60008 -0.0346622 2.00222 0.034385 2.39018C0.103432 2.77814 0.273864 3.13451 0.524126 3.41421C0.774388 3.69392 1.09324 3.8844 1.44037 3.96157C1.78749 4.03874 2.14729 3.99913 2.47428 3.84776C2.80126 3.69638 3.08074 3.44004 3.27737 3.11114C3.474 2.78224 3.57895 2.39556 3.57895 2C3.57895 1.46957 3.39041 0.960859 3.05482 0.585787C2.71923 0.210714 2.26407 0 1.78947 0ZM32.2105 0C31.8566 0 31.5106 0.117298 31.2163 0.337061C30.9221 0.556824 30.6927 0.86918 30.5573 1.23463C30.4218 1.60008 30.3864 2.00222 30.4554 2.39018C30.5245 2.77814 30.6949 3.13451 30.9452 3.41421C31.1954 3.69392 31.5143 3.8844 31.8614 3.96157C32.2085 4.03874 32.5683 3.99913 32.8953 3.84776C33.2223 3.69638 33.5018 3.44004 33.6984 3.11114C33.8951 2.78224 34 2.39556 34 2C34 1.46957 33.8115 0.960859 33.4759 0.585787C33.1403 0.210714 32.6851 0 32.2105 0Z" fill="#64DE8A"/>
</svg>
